<?xml version="1.0"?>
<svg xmlns:rdf="http://www.w3.org/1999/02/22-rdf-syntax-ns#" xmlns="http://www.w3.org/2000/svg" xmlns:cc="http://web.resource.org/cc/" xmlns:dc="http://purl.org/dc/elements/1.1/" id="svg2" style="shape-rendering:geometricPrecision;text-rendering:geometricPrecision;image-rendering:optimizeQuality" fill-rule="evenodd" xml:space="preserve" height="414.27" width="409.71" version="1.0" clip-rule="evenodd" viewBox="0 0 8.5 11">
 <defs id="defs4">
  <style id="style6" type="text/css">
    .fil0 {fill:black}
  </style>
 </defs>
 <g id="Layer_x0020_1" transform="matrix(1.2707 0 0 1.2707 -1.1964 -1.5809)">
  <path id="path10" class="fil0" d="m5.1153 8.6792h-0.108c-1.3886 0.0288-2.8589 0.1736-4.0919 0.8642-0.0191 0.0095-0.0382 0.0191-0.05731 0.0287-0.00949 0.0054-0.01898 0.0109-0.02846 0.0164-0.00007 0.0011-0.00014 0.0023-0.00021 0.0034-0.00146 0.0044-0.00293 0.0088-0.0044 0.0132-0.00367 0.0008-0.00735 0.0015-0.01102 0.0022-0.00441-0.0007-0.00882-0.0014-0.01323-0.0022-0.00441 0.0008-0.00882 0.0015-0.01323 0.0022-0.00294-0.0029-0.00588-0.0058-0.00882-0.0088-0.00073-0.0037-0.00147-0.0073-0.0022-0.011 0.00294-0.0037 0.00588-0.0074 0.00881-0.011 0.00411-0.0024 0.00821-0.0048 0.01232-0.0071 0.00104-0.0182 0.00208-0.0365 0.00312-0.0547 0.06789-0.3621 0.37133-0.5359 0.59743-0.8135 0.0155-0.0198 0.0309-0.0397 0.0463-0.0595-0.0125-0.0081-0.0249-0.0162-0.0374-0.0243-0.0125-0.0059-0.025-0.0117-0.0375-0.0176-0.164-0.0615-0.3033 0.0277-0.44096 0.1102-0.01103 0.0066-0.02205 0.0133-0.03307 0.0199h-0.01323l-0.00882-0.0066c-0.00073-0.0037-0.00147-0.0074-0.0022-0.0111 0.00294-0.0036 0.00588-0.0073 0.00881-0.011 0.01176-0.0066 0.02352-0.0132 0.03528-0.0198 0.15379-0.0904 0.29939-0.1592 0.47619-0.0904 0.0133 0.0066 0.0265 0.0132 0.0397 0.0198 0.0132 0.0088 0.0265 0.0177 0.0397 0.0265-0.0154 0.0198-0.0309 0.0397-0.0463 0.0595-0.2267 0.2679-0.52425 0.4649-0.59086 0.8201-0.00064 0.0109-0.00128 0.0218-0.00193 0.0327 0.00359-0.0021 0.00717-0.0041 0.01074-0.0062l0.05733-0.0309c0.01837-0.0103 0.03675-0.0205 0.05512-0.0308 1.2604-0.6555 2.6126-0.8062 4.0522-0.8356h0.108c0.0044 0.0015 0.0089 0.0029 0.0133 0.0044 0.0014 0.0037 0.0029 0.0073 0.0044 0.011-0.0015 0.0044-0.003 0.0088-0.0044 0.0132-0.0044 0.0015-0.0089 0.003-0.0133 0.0045zm-0.823-0.3392c0.8749-0.1092 1.7836 0.0371 2.6595 0.0371 0.0197 0.0079 0.0199 0.0251 0 0.0331-0.9802 0-1.9986-0.1225-2.9741 0-0.0191-0.0345 0.2618-0.0636 0.3146-0.0702zm-3.734 0.3634c-0.06211-0.0855 0.00044-0.2923 0.02146-0.3331-0.35479-0.154-0.53869-0.9306-0.01044-1.122-0.39076 0.2042-0.39637 0.8675 0.0359 1.0907 0.01833-0.018 0.07145-0.0824 0.12504-0.0854-0.18094 0.0983-0.19054 0.3496-0.17196 0.4498zm0.48065-2.2377c-0.52395-0.0308-0.84693 0.3441-0.67566 0.7913 0.01417 0.037-0.00468 0.0711-0.02445 0.0278-0.23203-0.5079 0.21768-0.8769 0.70231-0.85 0.0214 0.0086 0.0183 0.024-0.0022 0.0309zm0.2922 0.1616c-0.0205-0.0021-0.0137-0.0357-0.0119-0.0479 0.0154-0.1038 0.1034-0.3372 0.3215-0.3651-0.1412 0.053-0.2812 0.2114-0.2913 0.3664-0.0009 0.0132 0.0057 0.049-0.0183 0.0466zm0.2785-0.4219c-0.0726 0.0764 0.0048-0.2817 0.0062-0.2861 0.0397-0.1305 0.1021-0.2541 0.1572-0.254-0.0886 0.0939-0.1509 0.2575-0.155 0.4605-0.0004 0.0232 0.0087 0.0617-0.0084 0.0796zm0.3255-2.066c-0.2085 0.2424-0.2521 0.6132-0.0705 0.8851-0.1754-0.1494-0.1704-0.458-0.0957-0.6552 0.0605-0.1593 0.2121-0.3866 0.3885-0.4316-0.0796 0.0495-0.1551 0.1235-0.2223 0.2017zm5.0931 1.5062c-0.1351-0.0962-0.3134-0.1517-0.4177-0.1396 0.1381-0.0542 0.395 0.079 0.4177 0.1396zm-0.288-0.1676c-0.0312-0.3711-0.2334-0.4935-0.3836-0.538 0.2387 0.0348 0.4132 0.2741 0.3994 0.5408-0.0016-0.0013-0.0065-0.0015-0.0158-0.0028zm-0.3282-1.0248c0.3242-0.0779 0.4995-0.4154 0.3039-0.847 0.2573 0.3805 0.0651 0.7775-0.274 0.8827 0.0009 0.0012 0.0019 0.0024 0.0029 0.0036 0.0849 0.1244 0.1278 0.3124 0.097 0.4855-0.0085-0.0059-0.006-0.0051-0.0192-0.0117 0.0015-0.1557 0.0263-0.4391-0.2719-0.5907 0.0154-0.057 0.1448 0.0642 0.1613 0.0776zm0.3767-0.7809c0.1606-0.1803 0.5781-0.6609 0.0816-0.9678 0.1157 0.0486 0.2285 0.1251 0.2603 0.2529 0.0619 0.2482-0.1538 0.6208-0.3419 0.7149zm0.2491-0.9215c-0.0179 0.025-0.0403 0.0196-0.0441-0.0111 0.107-0.4138-0.2398-0.672-0.4806-0.7474 0.3479 0.0856 0.6204 0.3694 0.5247 0.7585zm-0.9773-1.3499c0.2109 0.0288 0.3869 0.231 0.3732 0.4481-0.0496-0.2438-0.2564-0.469-0.5272-0.4053-0.3182 0.0749-0.4079 0.3801-0.3833 0.6655-0.1199-0.3434 0.1483-0.7614 0.5373-0.7083zm-1.0444 1.3124c-0.0402 0.0069-0.0544-0.7509 0.381-0.7748-0.2574 0.0544-0.3984 0.3648-0.3539 0.7748-0.0078 0.0197-0.0191 0.0198-0.0271 0zm-0.6309 0.154c-0.4456-0.5023-1.0424-0.2612-1.3575 0.1782-0.1504 0.2097-0.2132 0.4643-0.218 0.7194-0.0723 0.0145 0.0035-0.3311 0.0159-0.3837-0.3957 0.1586-0.4603 0.4015-0.5331 0.6557 0.0209-0.4357 0.3569-0.6266 0.5419-0.6909 0.1672-0.5953 1.0506-1.207 1.5703-0.5208 0.005-0.0613 0.2862-0.3857 0.5806-0.2398-0.0289-0.0163-0.2027-0.0387-0.3819 0.0752-0.1667 0.106-0.2022 0.2213-0.2465 0.3591-0.0024-0.0656 0.0187-0.1316 0.0282-0.1524h0.0001zm-2.7798 2.9814c-0.0134 0.0076-0.0411-0.0126-0.0518-0.0319-0.015-0.0273-0.0233-0.0644-0.0295-0.0858-0.0799-0.2785 0.1609-0.512 0.3768-0.5419-0.199 0.0787-0.4457 0.2409-0.3014 0.603 0.0053 0.0132 0.0243 0.046 0.0059 0.0566z"/>
  <path id="path12" class="fil0" d="m7.86 6.051c-0.0225 0.0093-0.0421 0.0202-0.0588 0.0329m-0.039 0.2963c0.0303 0.0769 0.0816 0.1658 0.1541 0.2668m-5.6333 0.9619l-0.0128-0.0042-0.0042-0.0107 0.0042-0.0106 0.0107-0.0064c0.2104-0.0353 0.421-0.0645 0.6236-0.0833 0.0002-0.0117 0.0132-0.0154 0.0424-0.0037 0.3986-0.0344 0.7631-0.0272 1.028 0.0535 0.6596 0.2009 1.674-0.0628 2.3548-0.2255 0.3175-0.0758 0.6267-0.1737 0.9228-0.2738 0.3351-0.1132 0.6086-0.2583 0.7863-0.3889 0.3343-0.2456 0.509-0.6406-0.1623-0.6142-0.0052-0.0105-0.0108-0.0206-0.0167-0.0304-0.0217 0.008-0.0656 0.0091-0.0908 0.0257-0.0013-0.0017-0.0026-0.0035-0.0039-0.0052-0.0268-0.0358-0.0536-0.0717-0.0804-0.1075-0.0032-0.0044-0.0065-0.0087-0.0097-0.013 0.0053-0.001 0.0106-0.0019 0.0159-0.0029l0.0668-0.0123c-0.1593-0.1238-0.4052-0.1362-0.6381-0.0722-0.1645 0.0452-1.1994 0.3418-1.331 0.3364 0.0548-0.0305 0.0878-0.043 0.148-0.0587l1.1751-0.3065c0.3393-0.0885 0.6438-0.0239 0.7868 0.2168 0.6812-0.0048 0.4965 0.4118 0.1583 0.6763-0.1308 0.1023-0.3464 0.2117-0.6136 0.3187 0.1106 0.2807 0.0825 0.6238-0.1388 0.7906 0.0307 0.0437 0.0514 0.085 0.058 0.122-0.0605 0.1665-0.5829 0.2909-0.7328 0.2309l-1.4059-0.5628c-0.3953 0.0591-0.9165 0.1364-1.3064-0.0101-0.2586-0.0972-0.5803-0.1021-0.9323-0.0678l0.0027 0.0016c0.1975 0.1161 0.7192 0.4312 0.3602 0.6907-0.0204 0.0053-0.7858-0.2513-1.3573-0.475-0.2425 0.0205-0.2275-0.0207-0.1745-0.0711-0.5712-0.2426-0.84793-0.4416-0.96598-0.7013-0.00656-0.1249 0.04137-0.1971 0.12421-0.2321 0.15857-0.067 0.44507 0.0021 0.72217 0.0985-0.003-0.1584 0.0287-0.3491 0.0233-0.4855 0.0541-0.1215 0.153-0.2892 0.3076-0.2892 0.0576 0.0151 0.0849 0.039 0.1257 0.0829 0.17 0.2835 0.3555 0.5739 0.6155 0.768l0.0046 0.0063-0.0041 0.0022c-0.2479-0.0156-0.5016-0.5573-0.6404-0.7552-0.0331-0.0364-0.0608-0.0616-0.1081-0.0723-0.139 0.0107-0.2144 0.1565-0.2664 0.2658 0.0016 0.1405-0.043 0.3256-0.0504 0.4796 0.2528 0.0884 0.4967 0.1987 0.6275 0.248 0.1299 0.0491 0.0663 0.0793-0.0291 0.0458-0.1509-0.0532-0.3732-0.1513-0.5992-0.2355 0.0005 0.0194 0.0019 0.038 0.0043 0.0557-0.0035-0.0181-0.006-0.0371-0.0078-0.0569-0.2814-0.1046-0.5682-0.187-0.72991-0.1331-0.07724 0.0515-0.09503 0.1184-0.08969 0.2091 0.09998 0.25 0.397 0.4536 0.9717 0.6951-0.1095 0.0711 0 0.0726 0.152 0.0569 0.5702 0.2032 1.3196 0.4675 1.324 0.4715 0.3496-0.2495-0.1828-0.5025-0.352-0.6072-0.029-0.0179-0.0507-0.0387-0.0621-0.0558-0.2031 0.0225-0.4153 0.0565-0.6305 0.0923zm3.2401-0.1806c0.0161-0.0117 0.8646-0.1249 0.7894-0.258-0.0419-0.1294-0.2101-0.1534-0.3371-0.1328l-1.0759 0.2146c-0.1285 0.0179-0.2184 0.0317-0.2828 0.0687-0.0607 0.0349-0.1069 0.1075-0.0787 0.1782 0.0064 0.0855 0.6533-0.0145 0.6788-0.015-0.0313-0.0009-0.6601 0.1328-0.7045 0.0285-0.028-0.0676 0.0066-0.1678 0.0728-0.2069 0.0735-0.0435 0.1818-0.0674 0.307-0.0877l0.8666-0.1807c0.0839-0.0136 0.1735-0.0378 0.2588-0.037 0.1087 0.0011 0.2893 0.0426 0.3147 0.1484 0.1035 0.173-0.6055 0.2398-0.8091 0.2797zm2.3306-1.4275c-0.0241-0.0377-0.0531-0.07-0.086-0.0973-0.0292 0.0081-0.0803 0.0085-0.0753 0.0127 0.0177 0.0298 0.0505 0.0776 0.0777 0.1074 0.0264-0.0026 0.0572-0.0124 0.0836-0.0228zm-0.417 1.0081c-0.0566 0.0226-0.1156 0.0451-0.1765 0.0674 0.1003 0.0093 0.1706 0.0418 0.181 0.0746 0.0124 0.0391-0.0271 0.1173-0.1232 0.2056-0.0038 0.0482-0.0199 0.089-0.0501 0.1124-0.0788 0.0879-0.5954 0.3169-0.6956 0.2287 0.193 0.0369 0.4897-0.0867 0.6282-0.2066-0.1397 0.0064-0.1711-0.1954-0.1581-0.3387-0.0797 0.0266-0.1619 0.0528-0.246 0.0783 0.0091 0.145 0.0385 0.2897 0.0687 0.4095-0.0368-0.0679-0.0685-0.1666-0.0875-0.2767-0.045-0.0316-0.0838-0.0585-0.1118-0.0789l0.0436-0.0135c0.0192 0.014 0.0396 0.0289 0.0608 0.0445-0.0032-0.0245-0.0059-0.0495-0.0078-0.0746-0.487 0.1461-0.9602 0.2518-1.463 0.3342l1.3701 0.5546c0.1242 0.0502 0.6004-0.0807 0.6591-0.2113-0.0024-0.0335-0.0178-0.0701-0.0425-0.1084-0.0239 0.0162-0.0498 0.0304-0.0779 0.0425 0.0263-0.0162 0.0502-0.0333 0.0721-0.0512-0.0459-0.0677-0.1196-0.1402-0.2016-0.2098 0.0074-0.0033 0.0144-0.0077 0.0207-0.0131 0.0787 0.0704 0.1493 0.142 0.1978 0.2084 0.223-0.1975 0.2092-0.4932 0.1395-0.7779zm-0.2179 0.0824c-0.0497 0.0178-0.1006 0.0355-0.1526 0.053-0.0046 0.1374 0.0197 0.3282 0.1515 0.3097 0.0311-0.0043 0.0499-0.0271 0.0588-0.0617-0.0228 0.0186-0.0479 0.0374-0.0756 0.0563 0.0487-0.0652 0.2513-0.2266 0.2194-0.2965-0.0196-0.0431-0.1081-0.0566-0.2015-0.0608zm0.6866-0.4365c-0.1116-0.1556-0.3336-0.4996-0.0504-0.6162-0.0212 0.0137-0.039 0.0289-0.0538 0.0453-0.0713 0.0786-0.0731 0.1856-0.039 0.2963 0.0288 0.0937 0.0833 0.1902 0.1432 0.2746zm-0.593-0.6658c0.0093 0.0475 0.0186 0.095 0.028 0.1425 0.0006 0.0033 0.0013 0.0066 0.0019 0.0099-0.0033 0.0007-0.0066 0.0013-0.01 0.0019-0.0407 0.0076-0.0814 0.0152-0.1222 0.0228-0.0034 0.0006-0.0069 0.0013-0.0104 0.0019-0.0004-0.0035-0.0009-0.007-0.0013-0.0105 0.0007-0.0482-0.0085-0.0964-0.019-0.1446-0.0004-0.0032-0.0008-0.0063-0.0012-0.0095 0.0031-0.0005 0.0062-0.0011 0.0093-0.0017 0.0378-0.0069 0.0755-0.0138 0.1132-0.0207 0.0033-0.0006 0.0065-0.0012 0.0098-0.0018 0.0006 0.0033 0.0012 0.0065 0.0019 0.0098zm0.0135 0.1449c-0.001-0.041-0.0056-0.1012-0.0253-0.1422-0.0314 0.0057-0.0807 0.0139-0.1121 0.0196 0.0033 0.0253 0.0129 0.1274 0.0279 0.1464 0.0296 0.0062 0.0798-0.0183 0.1095-0.0238zm0.1442-0.2154c0.0021 0.004 0.0042 0.008 0.0063 0.0119-0.0044 0.0009-0.0089 0.0017-0.0133 0.0026-0.0458 0.0073-0.0916 0.0095-0.1374 0.0264l-0.0027-0.0084c-0.0094-0.0285-0.0187-0.057-0.0281-0.0855-0.004-0.0125-0.0049-0.0081 0.008-0.0102 0.0393-0.003 0.079-0.0124 0.1221-0.0229 0.015 0.0287 0.0301 0.0574 0.0451 0.0861zm-0.0144 0.0033c-0.0107-0.0204-0.025-0.0589-0.0357-0.0793-0.0321 0.0034-0.0835 0.0159-0.1156 0.023 0.0064 0.0193 0.0199 0.0518 0.0262 0.071 0.0057 0.0175 0.1059-0.011 0.1251-0.0147zm-0.1785-0.0558c0.0085 0.0285 0.0171 0.057 0.0256 0.0856 0.0011 0.0036 0.0022 0.0072 0.0033 0.0108-0.0038 0.0007-0.0075 0.0013-0.0112 0.002-0.0351 0.006-0.0701 0.012-0.1052 0.018-0.0037 0.0006-0.0074 0.0012-0.0112 0.0019-0.0001-0.0038-0.0003-0.0076-0.0005-0.0114 0.0009-0.0293 0.0023-0.0587-0.0044-0.0881-0.0001-0.0029-0.0002-0.0058-0.0004-0.0087 0.0029-0.0005 0.0058-0.001 0.0086-0.0016 0.028-0.0052 0.056-0.0076 0.084-0.0127 0.0097-0.0018 0.0086-0.0053 0.0114 0.0042zm0.0176 0.0913c-0.0066-0.022-0.0217-0.0622-0.0283-0.0842-0.0221 0.0041-0.0623 0.0046-0.0844 0.0087 0.0008 0.017 0.0041 0.0557 0.0049 0.0727 0.0017 0.0337 0.0804 0.0075 0.1078 0.0028zm0.3294-0.0693c0.0057 0.0046 0.0113 0.0093 0.0169 0.0139-0.0072 0.0012-0.0143 0.0025-0.0215 0.0037-0.0193 0.0034-0.1191 0.0292-0.1268 0.0156-0.0145-0.0254-0.0304-0.0508-0.0449-0.0762-0.009-0.0157-0.01-0.0138 0.008-0.015 0.0289-0.0019 0.0479 0.0003 0.0767-0.0016 0.0258 0.0083 0.0607 0.0453 0.0916 0.0596zm-0.0075 0.0058c-0.0183-0.015-0.067-0.0467-0.0853-0.0617-0.0221 0.0015-0.0492 0.0033-0.0714 0.0048 0.037 0.0904 0.0498 0.0873 0.1567 0.0569zm0.1159 0.1457c-0.0187-0.0322-0.0627-0.0788-0.0911-0.111-0.0356 0.0068-0.0856 0.0113-0.1245 0.0181 0.0411 0.0628 0.0625 0.1044 0.0851 0.1264 0.0349-0.0091 0.0708-0.0109 0.1305-0.0335zm0.0105-0.0074c0.003 0.004 0.006 0.0079 0.0089 0.0119-0.0048 0.0012-0.0095 0.0025-0.0143 0.0038-0.0443 0.0119-0.0887 0.0238-0.133 0.0358l-0.0069 0.0018c-0.0013-0.002-0.0027-0.0039-0.004-0.0059-0.0235-0.0416-0.0505-0.0831-0.0852-0.1247-0.0029-0.0042-0.0058-0.0085-0.0087-0.0127 0.005-0.001 0.0101-0.0019 0.0152-0.0028 0.0464-0.0085 0.0858-0.0128 0.1322-0.0213 0.0296 0.0394 0.0662 0.0747 0.0958 0.1141zm-0.2561-0.0823c0.0232 0.0429 0.051 0.0857 0.0816 0.1286 0.0026 0.0041 0.0051 0.0081 0.0077 0.0121-0.0047 0.0011-0.0094 0.0021-0.0141 0.0031-0.0656 0.0134-0.1305 0.0287-0.1959 0.0431-0.0007-0.0033-0.0014-0.0065-0.0022-0.0098-0.0105-0.0472-0.0211-0.0944-0.0316-0.1415-0.0007-0.0033-0.0015-0.0066-0.0022-0.0099 0.0033-0.0007 0.0066-0.0014 0.01-0.0021 0.0211-0.0078 0.0554-0.0165 0.1363-0.028 0.0022-0.0005 0.0045-0.001 0.0067-0.0014 0.0013 0.0019 0.0025 0.0038 0.0037 0.0058zm0.069 0.1333c-0.0122-0.0257-0.0464-0.0795-0.081-0.1276-0.0451 0.0004-0.0941 0.0177-0.1315 0.0295 0.009 0.0404 0.0107 0.1505 0.0487 0.1353 0.0432-0.0172 0.1164-0.0268 0.1638-0.0372zm-5.0917-1.3626c0.035-0.2353 0.3631-0.4249 0.5842-0.413 0.218 0.0117 0.6426 0.3502 0.8785 0.519-0.0089-0.0738-0.0125-0.1505-0.0092-0.2258-0.0859 0.0238-0.1601 0.0504-0.1861 0.0778l-0.0255-0.0194c0.0716-0.0392 0.1418-0.0658 0.2131-0.0854 0.0141-0.2121 0.085-0.4099 0.2498-0.5009-0.1404 0.1176-0.1978 0.297-0.2101 0.4907 0.1026-0.0247 0.2082-0.0374 0.3238-0.0545-0.0123 0.0128-0.1773 0.0427-0.3253 0.081-0.0092 0.2161 0.0348 0.4471 0.0805 0.6284-0.0469-0.0866-0.0866-0.2172-0.107-0.3607-0.2194-0.1486-0.6575-0.4818-0.8648-0.507-0.2159-0.0264-0.5146 0.1499-0.5515 0.3726 0.1456 0.1673 1.6076 1.8363 1.5744 1.8514l-1.6248-1.8542zm1.8627 1.6896c0.0251 0.0347-0.0036 0.0764-0.0462 0.0489-0.4578-0.4342-0.9032-0.9332-1.2897-1.431l-0.0028-0.0128c-0.0086 0.0163 1.1742 1.3032 1.3387 1.3949zm1.0729-0.1928c0.0461-0.0283 0.0861-0.0593 0.1207-0.0925-0.0455-0.0352-0.0865-0.0738-0.1146-0.0964-0.048-0.0384-0.0972-0.0787-0.1474-0.1202-0.211 0.1018-0.508 0.2004-0.5858 0.132 0.2207 0.0422 0.56-0.0991 0.7182-0.2362-0.2179 0.01-0.2053-0.4238-0.1477-0.5253l0.0099-0.0141 0.0002 0.0042c-0.0041 0.0151-0.0084 0.0406-0.0116 0.0724 0.0534-0.0102 0.1047-0.0145 0.152-0.0145-0.018-0.0278-0.036-0.047-0.0581-0.0648 0.0308 0.0245 0.0564 0.0356 0.0823 0.0653 0.1365 0.0046 0.2351 0.0461 0.2483 0.0879 0.0141 0.0448-0.0311 0.1341-0.1408 0.2351-0.0044 0.055-0.0228 0.1017-0.0572 0.1285-0.0252 0.028-0.0896 0.0688-0.1717 0.1107 0.0697 0.0545 0.1377 0.1065 0.2035 0.1549 0.0202 0.0149 0.0389 0.0293 0.0569 0.0425 0.208-0.2365 0.1747-0.57 0.0911-0.8855 0.1369 0.3009 0.1302 0.6807-0.0755 0.8966 0.0556 0.0391 0.1088 0.0658 0.1921 0.0643-0.058 0.0768-0.1502 0.0327-0.2311-0.0275-0.0387 0.033-0.0832 0.0609-0.1337 0.0826zm-0.3924-0.2429c-0.0476-0.088-0.0879-0.2214-0.1079-0.3676-0.1005-0.0846-0.203-0.1705-0.3064-0.2548-0.0451 0.0448-0.0992 0.082-0.1628 0.1093 0.059-0.0363 0.1081-0.0769 0.1486-0.121-0.0834-0.0678-0.1673-0.1346-0.251-0.199l0.0146-0.014c0.0836 0.064 0.1674 0.1299 0.2509 0.1965 0.2013-0.236 0.1679-0.5661 0.0851-0.8785 0.1357 0.2982 0.1303 0.6737-0.07 0.8906 0.0288 0.023 0.0575 0.046 0.0861 0.0691 0.0651-0.0337 0.1291-0.0574 0.1941-0.0753 0.0141-0.2121 0.085-0.4099 0.2498-0.5009-0.1404 0.1176-0.1978 0.297-0.2101 0.4907 0.1026-0.0247 0.2082-0.0373 0.3238-0.0544-0.0123 0.0128-0.1773 0.0426-0.3253 0.081-0.0092 0.2161 0.0349 0.4471 0.0805 0.6283zm-0.1128-0.4074c-0.0076-0.0691-0.0105-0.1402-0.0074-0.2103-0.073 0.0203-0.1375 0.0425-0.1712 0.0656 0.0599 0.0483 0.1195 0.0967 0.1786 0.1447zm0.4968 0.1885c0.0557-0.0746 0.2873-0.2591 0.2509-0.3391-0.0349-0.0765-0.2604-0.0715-0.401-0.0715-0.0145 0.1526-0.0028 0.441 0.1693 0.4168 0.0356-0.005 0.0571-0.031 0.0673-0.0705-0.0261 0.0212-0.0549 0.0427-0.0865 0.0643zm-0.9695-0.7561c0.0557-0.0745 0.2873-0.2591 0.2509-0.339-0.0349-0.0766-0.2604-0.0716-0.401-0.0716-0.0146 0.1526-0.0028 0.441 0.1693 0.4169 0.0356-0.005 0.0571-0.0311 0.0673-0.0706-0.0261 0.0213-0.0549 0.0428-0.0865 0.0643zm-0.1497-0.4143c0.0534-0.0101 0.1047-0.0145 0.152-0.0144-0.018-0.0278-0.036-0.047-0.0581-0.0648 0.0308 0.0245 0.0564 0.0356 0.0823 0.0652 0.1365 0.0047 0.2351 0.0461 0.2483 0.088 0.0141 0.0447-0.0311 0.1341-0.1408 0.2351-0.0044 0.0551-0.0228 0.1018-0.0574 0.1285-0.0902 0.1005-0.6807 0.3623-0.7953 0.2615 0.2207 0.0422 0.56-0.0991 0.7182-0.2363-0.2179 0.0101-0.2053-0.4237-0.1477-0.5252l0.0099-0.0142 0.0002 0.0043c-0.0041 0.0151-0.0084 0.0406-0.0116 0.0723zm0.0161 2.0433c0.4657-0.0044 0.8911-0.1582 1.3257-0.3077l0.0333-0.0148 0.0314-0.0126 0.0127-0.0008 0.009 0.008 0.0006 0.0106-0.0081 0.009-0.0312 0.0147-0.0333 0.0148c-0.4513 0.1812-0.8501 0.306-1.3405 0.3107l-0.0109-0.0057-0.0049-0.0103 0.0058-0.011 0.0104-0.0049zm-1.5906 0.3808c-0.0201-0.0034-0.0257-0.0147-0.0106-0.0298 0.4666-0.1568 0.9547-0.2913 1.4573-0.3912 0.003 0.0011 0.0191-0.0038 0.0261 0.0275-0.1723 0.053-0.926 0.2457-1.4728 0.3935z"/>
 </g>
<metadata><rdf:RDF><cc:Work><dc:format>image/svg+xml</dc:format><dc:type rdf:resource="http://purl.org/dc/dcmitype/StillImage"/><cc:license rdf:resource="http://creativecommons.org/licenses/publicdomain/"/><dc:publisher><cc:Agent rdf:about="http://openclipart.org/"><dc:title>Openclipart</dc:title></cc:Agent></dc:publisher></cc:Work><cc:License rdf:about="http://creativecommons.org/licenses/publicdomain/"><cc:permits rdf:resource="http://creativecommons.org/ns#Reproduction"/><cc:permits rdf:resource="http://creativecommons.org/ns#Distribution"/><cc:permits rdf:resource="http://creativecommons.org/ns#DerivativeWorks"/></cc:License></rdf:RDF></metadata></svg>
